<svg xmlns="http://www.w3.org/2000/svg" xmlns:xlink="http://www.w3.org/1999/xlink" version="1.1" width="1000" height="1000" viewBox="0 0 1000 1000" xml:space="preserve">
<desc>Created with Fabric.js 3.5.0</desc>
<defs>
</defs>
<rect x="0" y="0" width="100%" height="100%" fill="rgba(102,51,102,0)"/>
<g transform="matrix(0.9091 0 0 0.9091 500.0045 500.0045)" id="865935">
<g style="" vector-effect="non-scaling-stroke">
		<g transform="matrix(1 0 0 1 -450 -450)">
<rect style="stroke: none; stroke-width: 1; stroke-dasharray: none; stroke-linecap: butt; stroke-dashoffset: 0; stroke-linejoin: miter; stroke-miterlimit: 4; is-custom-font: none; font-file-url: none; fill: rgb(255,255,255); fill-opacity: 0; fill-rule: nonzero; opacity: 1;" x="-50" y="-50" rx="0" ry="0" width="100" height="100"/>
</g>
		<g transform="matrix(1.8109 0 0 1.8109 -0.0096 -0.01)" id="Layer_1">
<path style="stroke: none; stroke-width: 1; stroke-dasharray: none; stroke-linecap: butt; stroke-dashoffset: 0; stroke-linejoin: miter; stroke-miterlimit: 4; is-custom-font: none; font-file-url: none; fill: rgb(245,196,1); fill-rule: nonzero; opacity: 1;" vector-effect="non-scaling-stroke" transform=" translate(-251, -250.9998)" d="M 472.289 212.904 c 4.17 0 7.901 -2.587 9.364 -6.491 c 1.463 -3.905 0.35 -8.307 -2.793 -11.047 L 257.571 2.461 c -3.766 -3.282 -9.377 -3.282 -13.143 0 L 23.14 195.367 c -3.143 2.74 -4.256 7.142 -2.793 11.047 c 1.463 3.904 5.194 6.491 9.364 6.491 h 12.602 v 240.711 H 30.236 c -5.522 0 -10 4.477 -10 10 V 492 c 0 5.523 4.478 10 10 10 h 440.476 c 5.522 0 10 -4.477 10 -10 v -28.384 c 0 -5.523 -4.478 -10 -10 -10 h -11.024 V 212.904 H 472.289 z M 56.4 192.904 L 251 23.265 l 194.6 169.639 L 56.4 192.904 L 56.4 192.904 z M 439.687 212.904 v 240.711 h -36.769 V 212.904 H 439.687 z M 382.919 212.904 v 240.711 h -36.768 V 212.904 H 382.919 z M 307.767 344.284 c -5.522 0 -10 4.477 -10 10 v 99.331 h -8.384 V 212.904 h 36.768 v 240.711 h -8.384 v -99.331 C 317.767 348.761 313.29 344.284 307.767 344.284 z M 269.384 212.904 v 240.711 h -36.768 V 212.904 H 269.384 z M 212.617 212.904 v 240.711 h -36.768 V 212.904 H 212.617 z M 155.849 212.904 v 240.711 h -36.768 V 212.904 H 155.849 z M 80.697 302.234 c -5.522 0 -10 4.477 -10 10 v 141.381 h -8.385 V 212.904 h 36.769 v 240.711 h -8.384 V 312.234 C 90.697 306.711 86.219 302.234 80.697 302.234 z M 460.712 473.615 V 482 H 40.236 v -8.384 H 460.712 z" stroke-linecap="round"/>
</g>
		<g transform="matrix(1.8109 0 0 1.8109 -105.1905 -248.2818)" id="Layer_1">
<path style="stroke: none; stroke-width: 1; stroke-dasharray: none; stroke-linecap: butt; stroke-dashoffset: 0; stroke-linejoin: miter; stroke-miterlimit: 4; is-custom-font: none; font-file-url: none; fill: rgb(245,196,1); fill-rule: nonzero; opacity: 1;" vector-effect="non-scaling-stroke" transform=" translate(-192.9179, -113.9012)" d="M 192.129 154.533 h -30.604 l 96.046 -83.726 c 4.163 -3.629 4.596 -9.946 0.967 -14.109 c -3.629 -4.163 -9.946 -4.595 -14.109 -0.967 L 128.265 156.995 c -3.143 2.74 -4.256 7.142 -2.793 11.047 c 1.462 3.904 5.194 6.491 9.364 6.491 h 57.293 c 5.522 0 10 -4.477 10 -10 S 197.651 154.533 192.129 154.533 z" stroke-linecap="round"/>
</g>
		<g transform="matrix(1.8109 0 0 1.8109 177.5908 -185.1496)" id="Layer_1">
<path style="stroke: none; stroke-width: 1; stroke-dasharray: none; stroke-linecap: butt; stroke-dashoffset: 0; stroke-linejoin: miter; stroke-miterlimit: 4; is-custom-font: none; font-file-url: none; fill: rgb(245,196,1); fill-rule: nonzero; opacity: 1;" vector-effect="non-scaling-stroke" transform=" translate(-349.073, -148.7635)" d="M 373.735 156.996 l -36.182 -31.541 c -4.164 -3.628 -10.479 -3.197 -14.109 0.967 c -3.629 4.164 -3.196 10.48 0.967 14.109 l 36.182 31.541 c 1.896 1.652 4.236 2.462 6.567 2.462 c 2.789 0 5.564 -1.161 7.542 -3.429 C 378.331 166.942 377.898 160.624 373.735 156.996 z" stroke-linecap="round"/>
</g>
		<g transform="matrix(1.8109 0 0 1.8109 80.7041 -269.6082)" id="Layer_1">
<path style="stroke: none; stroke-width: 1; stroke-dasharray: none; stroke-linecap: butt; stroke-dashoffset: 0; stroke-linejoin: miter; stroke-miterlimit: 4; is-custom-font: none; font-file-url: none; fill: rgb(245,196,1); fill-rule: nonzero; opacity: 1;" vector-effect="non-scaling-stroke" transform=" translate(-295.571, -102.1245)" d="M 310.138 101.557 l -15.992 -13.941 c -4.163 -3.628 -10.479 -3.197 -14.109 0.967 c -3.629 4.162 -3.196 10.479 0.967 14.109 l 15.992 13.941 c 1.896 1.652 4.236 2.462 6.567 2.462 c 2.789 0 5.564 -1.161 7.542 -3.429 C 314.734 111.503 314.301 105.187 310.138 101.557 z" stroke-linecap="round"/>
</g>
		<g transform="matrix(1.8109 0 0 1.8109 -0.0096 -214.6538)" id="Layer_1">
<path style="stroke: none; stroke-width: 1; stroke-dasharray: none; stroke-linecap: butt; stroke-dashoffset: 0; stroke-linejoin: miter; stroke-miterlimit: 4; is-custom-font: none; font-file-url: none; fill: rgb(245,196,1); fill-rule: nonzero; opacity: 1;" vector-effect="non-scaling-stroke" transform=" translate(-251, -132.471)" d="M 263.615 122.471 h -25.23 c -5.523 0 -10 4.477 -10 10 c 0 5.523 4.478 10 10 10 h 25.23 c 5.522 0 10 -4.477 10 -10 C 273.615 126.947 269.137 122.471 263.615 122.471 z" stroke-linecap="round"/>
</g>
		<g transform="matrix(1.8109 0 0 1.8109 102.7898 109.9302)" id="Layer_1">
<path style="stroke: none; stroke-width: 1; stroke-dasharray: none; stroke-linecap: butt; stroke-dashoffset: 0; stroke-linejoin: miter; stroke-miterlimit: 4; is-custom-font: none; font-file-url: none; fill: rgb(245,196,1); fill-rule: nonzero; opacity: 1;" vector-effect="non-scaling-stroke" transform=" translate(-307.767, -311.71)" d="M 317.767 304.877 c 0 -5.523 -4.478 -10 -10 -10 c -5.522 0 -10 4.477 -10 10 v 13.666 c 0 5.523 4.478 10 10 10 c 5.522 0 10 -4.477 10 -10 V 304.877 z" stroke-linecap="round"/>
</g>
</g>
</g>
</svg>